<svg width="48" height="61" viewBox="0 0 48 61" fill="none" xmlns="http://www.w3.org/2000/svg">
<path d="M23.9996 36.3585V44.6233C23.9996 44.6233 23.9944 44.6312 23.9918 44.6364C19.8462 38.9291 15.6797 33.2349 11.5237 27.5354C11.5237 27.5354 8.58096 21.5425 12.1762 16.6396C12.1762 16.6396 12.2863 20.345 18.2792 28.408L23.9996 36.3611V36.3585ZM23.9996 36.3585V44.6233C23.9996 44.6233 24.0049 44.6312 24.0075 44.6364C28.153 38.9291 32.3195 33.2349 36.4755 27.5354C36.4755 27.5354 39.4183 21.5425 35.8231 16.6396C35.8231 16.6396 35.713 20.345 29.72 28.408L23.9996 36.3611V36.3585Z" fill="url(#paint0_linear_94_2442)"/>
<path d="M14.9457 13.5872C14.9457 13.5872 19.1961 26.1679 23.9889 29.902C23.9889 29.902 23.9941 29.8968 23.9967 29.8942V9.7168C21.164 9.76396 18.0248 10.7545 14.9431 13.5872H14.9457ZM23.9994 9.7168V29.8942L24.0072 29.902C28.8026 26.1679 33.0504 13.5872 33.0504 13.5872C29.9687 10.7545 26.8321 9.76396 23.9967 9.7168H23.9994Z" fill="url(#paint1_linear_94_2442)"/>
<path d="M23.9995 57.8986V60.5217C22.3931 60.5033 20.9388 59.746 19.9981 58.4411C15.7922 52.5922 11.5419 46.7749 7.36753 40.9025C5.4782 38.2453 3.19055 35.5882 1.83054 32.6166C0.795471 30.3552 0.234697 27.8946 0.0617476 25.4235C-0.433516 18.4322 2.05066 10.7228 7.50904 6.11087C12.0005 2.31647 17.9594 0.204394 23.9995 0V2.61258C18.5725 2.80911 13.2268 4.70893 9.19922 8.11026C5.39696 11.3203 3.33206 16.3227 2.78438 21.1836C2.504 23.6626 2.61144 26.2044 3.21414 28.6309C3.91117 31.4348 5.35242 33.5809 7.0164 35.9C12.0476 42.9097 17.092 49.9063 22.1285 56.9081C22.5687 57.5213 23.25 57.8777 24.0021 57.896L23.9995 57.8986ZM23.9995 57.8986V60.5217C25.6058 60.5033 27.0601 59.746 28.0009 58.4411C32.0835 52.7626 36.3103 47.1889 40.33 41.4658C42.298 38.6646 44.7219 35.7533 46.2077 32.6638C47.2559 30.4862 47.759 27.871 47.9346 25.4733C48.4455 18.4662 45.964 10.7307 40.4899 6.10825C36.0011 2.31647 30.0396 0.204394 23.9995 0V2.61258C29.4264 2.80911 34.7721 4.70893 38.7997 8.11026C42.6832 11.3911 44.7586 16.535 45.2486 21.5033C45.4976 24.0294 45.3456 26.621 44.6695 29.0738C43.8388 32.0899 41.9311 34.5322 40.1781 37.0818C35.5635 43.7928 30.6397 50.302 25.8731 56.9081C25.4328 57.5213 24.7515 57.8777 23.9995 57.896V57.8986Z" fill="url(#paint2_linear_94_2442)"/>
<defs>
<linearGradient id="paint0_linear_94_2442" x1="23.8792" y1="16.6396" x2="23.8792" y2="44.6364" gradientUnits="userSpaceOnUse">
<stop stop-color="#863E15"/>
<stop offset="1" stop-color="#391D0C"/>
</linearGradient>
<linearGradient id="paint1_linear_94_2442" x1="23.9166" y1="9.7168" x2="23.9166" y2="29.902" gradientUnits="userSpaceOnUse">
<stop stop-color="#863E15"/>
<stop offset="1" stop-color="#391D0C"/>
</linearGradient>
<linearGradient id="paint2_linear_94_2442" x1="23.7876" y1="-4.02718e-07" x2="23.7876" y2="60.5217" gradientUnits="userSpaceOnUse">
<stop stop-color="#863E15"/>
<stop offset="1" stop-color="#391D0C"/>
</linearGradient>
</defs>
</svg>
